<?xml version="1.0" encoding="UTF-8" standalone="no"?><!DOCTYPE svg PUBLIC "-//W3C//DTD SVG 1.1//EN" "http://www.w3.org/Graphics/SVG/1.1/DTD/svg11.dtd"><svg width="100%" height="100%" viewBox="0 0 600 176" version="1.1" xmlns="http://www.w3.org/2000/svg" xmlns:xlink="http://www.w3.org/1999/xlink" xml:space="preserve" xmlns:serif="http://www.serif.com/" style="fill-rule:evenodd;clip-rule:evenodd;stroke-linejoin:round;stroke-miterlimit:2;"><path d="M88.9,141.4l30.5,0c10.8,0 21.6,-1.2 21.6,-13.8c-0,-4.8 -4.8,-10.2 -11.8,-11.1l-0,-0.3c7,-1.5 10.8,-5.1 10.8,-12c-0,-9.3 -9.2,-12.3 -18.1,-12.3l-33,-0l-0,49.5Zm19.1,-20.4l5.4,0c3.8,0 7.3,0.9 7.3,5.1c0,3.9 -3.8,5.1 -7.6,5.1l-5.1,0l0,-10.2Zm-0,-19.5l5.4,0c3.5,0 7,0.9 7,4.8c-0,3.6 -3.8,4.5 -7.3,4.5l-5.1,0l-0,-9.3Zm36.5,39.9l20,0l3.2,-10.8l16.8,0l3.5,10.8l21,0l-18.8,-49.5l-27.6,0l-18.1,49.5Zm31.8,-38.7l5.7,16.2l-11.8,0l6.1,-16.2Zm37.2,-10.8l29.9,0l6.7,27l0.3,0l6.7,-27l29.6,0l-0,49.5l-18.1,0l-0,-38.7l-0.3,0l-10.2,38.7l-16.8,0l-9.9,-38.7l-0.3,0l-0.3,38.7l-17.2,0l-0,-49.5l-0.1,0Zm77.5,49.5l20,0l3.5,-10.8l16.8,0l3.5,10.8l21,0l-18.8,-49.5l-27.6,0l-18.4,49.5Zm31.8,-38.7l0.3,0l5.7,16.2l-11.8,0l5.8,-16.2Zm56.9,8.7l0.3,0l12.4,-19.5l22.9,0l-17.5,23.4l19.1,26.1l-23.8,0l-13,-21l-0.4,0l0,21l-20,0l0,-49.5l20,0l0,19.5Zm38.8,30l20,0l3.2,-10.8l17.2,0l3.2,10.8l21.3,0l-18.8,-49.5l-27.6,0l-18.5,49.5Zm31.8,-38.7l0.3,0l5.7,16.2l-11.8,0l5.8,-16.2Zm129.2,13.2l20.5,0l0,21.9c-3.6,2.2 -10.6,3.6 -16.8,3.6c-15.8,0 -27.3,-8.1 -27.3,-25.8c0,-18.4 14.6,-25.8 27.8,-25.8c7.1,-0 11.3,0.7 14.5,1.7l-1.7,4.5c-2.8,-1.1 -7.1,-1.6 -12.3,-1.6c-9.8,-0 -21.5,5.2 -21.5,21.2c0,14.4 8.8,21.2 21.6,21.2c3.9,-0 7.4,-0.7 10.1,-1.8l0,-14.9l-14.9,-1.4l-0,-2.8Zm-60,-23.6l-22.8,48.2l6.7,0l7.3,-15.7l26,0l7.4,15.7l7.2,0l-22.9,-48.1l-8.9,0l-0,-0.1Zm-6.5,27.6l8.2,-17.5l2.4,-5.2l2.6,5.1l8.3,17.6l-21.5,0Zm-415.1,38.1l-0,1.6l-7.2,0l-0,6l6.7,0l-0,1.5l-6.7,0l-0,6.5l7.4,0l-0,1.5l-9.1,0l-0,-17.1l8.9,0Zm4.8,0.1l1.7,0l-0,17l-1.7,0l-0,-17Zm7.7,-0.3l8.5,11.9l1.3,2.3l0.1,0l-0.2,-2.3l-0,-11.6l1.6,0l-0,17.3l-0.8,0l-8.4,-12l-1.3,-2.4l-0.1,0l0.2,2.4l-0,11.7l-1.6,0l-0,-17.3l0.7,0Zm26.6,0.3l-5.8,7.4l-0.9,0.8l1.2,1l6.3,7.9l-2.2,0l-6.4,-8l-1.2,0l-0,8l-1.7,0l-0,-17.1l1.7,-0l-0,8l1.1,-0.3l5.9,-7.7l2,-0Zm8.1,-0.3l-6.5,17.3l1.7,0l1.8,-4.9l6.4,0l1.8,4.9l1.8,0l-6.5,-17.3l-0.5,0Zm-0.4,5.4l0.6,-2.6l0.6,2.6l2.1,5.5l-5.3,0l2,-5.5Zm19.8,-5.1l1.8,0l-0,11.4c-0,4.1 -2.2,5.8 -5.5,5.8c-3.9,0 -6,-1.8 -6,-5.4l-0,-11.8l1.7,0l-0,10.8c-0,3.7 1.4,4.9 4.2,4.9c2.7,0 3.8,-1.4 3.8,-4.9l-0,-10.8Zm15.5,-0.1l-0,1.6l-7.3,0l-0,6.2l6.8,0l-0,1.5l-6.8,0l-0,7.8l-1.7,0l-0,-17.1l9,0Zm3.3,4c-0,-2.5 1.8,-4.2 5.2,-4.2c2,0 3.6,0.3 4.5,0.8l-0.5,1.5c-0.7,-0.4 -2.3,-0.7 -4.1,-0.7c-2.3,0 -3.3,1.3 -3.3,2.6c-0,4 8.2,3.4 8.2,8.8c-0,2.7 -2.1,4.7 -5.6,4.7c-2.4,0 -3.9,-0.4 -4.8,-0.9l0.6,-1.6c0.7,0.4 2.3,0.9 4.1,0.9c2.1,0 4,-0.9 4,-3.1c-0.1,-4.3 -8.3,-3.2 -8.3,-8.8m19.2,4.7l5.6,-0l-0,7.5c-1,0.8 -2.9,1.2 -4.5,1.2c-4.3,-0 -7.4,-2.8 -7.4,-8.8c-0,-6.3 3.9,-8.8 7.5,-8.8c1.9,-0 3,0.2 3.9,0.6l-0.5,1.5c-0.7,-0.4 -1.9,-0.6 -3.3,-0.6c-2.7,-0 -5.8,1.8 -5.8,7.3c-0,4.9 2.4,7.3 5.8,7.3c1.1,-0 2,-0.2 2.7,-0.6l-0,-5.1l-4,-0.5l-0,-1Zm18.6,-8.7l-0,1.6l-7.3,0l-0,6l6.7,0l-0,1.5l-6.7,0l-0,6.5l7.4,0l-0,1.5l-9.1,0l-0,-17.1l9,-0Zm3.8,4c-0,-2.5 1.8,-4.2 5.2,-4.2c2,-0 3.6,0.3 4.5,0.8l-0.5,1.5c-0.7,-0.4 -2.3,-0.7 -4.1,-0.7c-2.3,-0 -3.3,1.3 -3.3,2.6c-0,4 8.2,3.4 8.2,8.8c-0,2.7 -2.1,4.7 -5.6,4.7c-2.4,0 -3.9,-0.4 -4.8,-0.9l0.6,-1.6c0.7,0.4 2.3,0.9 4.1,0.9c2.1,-0 4,-0.9 4,-3.1c-0.1,-4.3 -8.3,-3.2 -8.3,-8.8m22.7,-4l0,1.6l-7.3,-0l0,6l6.7,-0l0,1.5l-6.7,-0l0,6.5l7.4,-0l-0,1.5l-9.1,-0l-0,-17.1l9,-0Zm6,0.1l0,15.5l8.1,-0l0,1.6l-9.8,0l0,-17.1l1.7,-0Zm12.8,-0l0,15.5l8.1,-0l0,1.6l-9.8,0l0,-17.1l1.7,-0Zm10.6,3.9c0,-2.5 1.8,-4.2 5.2,-4.2c2,-0 3.6,0.3 4.5,0.8l-0.5,1.5c-0.7,-0.4 -2.3,-0.7 -4.1,-0.7c-2.3,-0 -3.3,1.3 -3.3,2.6c0,4 8.2,3.4 8.2,8.8c0,2.7 -2.1,4.7 -5.6,4.7c-2.4,-0 -3.9,-0.4 -4.8,-0.9l0.6,-1.6c0.7,0.4 2.3,0.9 4.1,0.9c2.1,-0 4,-0.9 4,-3.1c-0.1,-4.3 -8.3,-3.2 -8.3,-8.8m24.3,12.4c-1,0.8 -2.5,1 -4.2,1c-4,-0 -7.3,-2.8 -7.3,-8.8c0,-6.3 3.7,-8.8 7.3,-8.8c1.9,-0 3,0.2 3.9,0.6l-0.5,1.5c-0.8,-0.4 -1.9,-0.6 -3.3,-0.6c-2.7,-0 -5.5,1.8 -5.5,7.3c0,4.9 2.7,7.3 5.9,7.3c1.4,-0 2.5,-0.3 3.3,-0.8l0.4,1.3Zm15.5,-16.3l0,17.1l-1.7,-0l0,-8l-8.5,-0l0,8l-1.7,-0l0,-17.1l1.7,-0l0,7.5l8.5,-0l0,-7.5l1.7,-0Zm9.2,-0.3l-6.5,17.3l1.7,-0l1.8,-4.9l6.4,-0l1.8,4.9l1.8,-0l-6.5,-17.3l-0.5,-0Zm-0.4,5.4l0.6,-2.6l0.6,2.6l2.1,5.5l-5.3,-0l2,-5.5Zm19.2,-5.2l0,1.6l-7.3,-0l0,6.2l6.8,-0l0,1.5l-6.8,-0l0,7.8l-1.7,-0l0,-17.1l9,-0Zm14.5,0.1l0,1.6l-5.3,-0l0,15.5l-1.7,-0l0,-15.5l-5.3,-0l0,-1.6l12.3,-0Zm8.8,-0c1.2,-0.2 3.1,-0.2 4.4,-0.2c5.3,-0 7.8,3.5 7.8,8.6c0,4.6 -2.3,8.9 -8,8.9c-1,-0 -3.6,-0.1 -4.2,-0.2l0,-17.1Zm1.8,1.5l0,14.1c0.3,-0 2.1,0.1 2.5,0.1c4.7,-0 6.2,-3.5 6.2,-7.3c0,-3.3 -1.4,-7 -5.9,-7c-1,-0.1 -2.4,-0 -2.8,0.1m23.4,-1.6l0,1.6l-7.3,-0l0,6l6.7,-0l0,1.5l-6.7,-0l0,6.5l7.4,-0l0,1.5l-9.1,-0l0,-17.1l9,-0Zm4.3,0.2c1.2,-0.2 2.9,-0.4 4.2,-0.4c2.9,-0 5.4,1.3 5.4,4.7c0,2.7 -1.7,4.3 -3.9,4.8l1.1,0.9l4.3,6.8l-2,-0l-4.9,-7.5l-2.5,-0.4l0,7.9l-1.7,-0l0,-16.8Zm1.8,1.3l0,6.6l2,-0c2.3,-0 4,-1.1 4,-3.6c0,-1.8 -1.3,-3.2 -3.5,-3.2c-0.9,0.1 -2.1,0.1 -2.5,0.2m26.4,6.5l0,0.1c1.9,0.3 3.7,1.5 3.7,4.2c0,3.5 -3.1,5.1 -6.3,5.1c-1.1,-0 -3,-0 -4.2,-0.3l0,-16.8c1.2,-0.2 2.7,-0.3 4.6,-0.3c2.3,-0 5.4,0.7 5.4,4.1c0,1.5 -1,3.3 -3.2,3.9m-3.7,-0.3c0.6,-0 1.5,-0.1 2.1,-0.1c1.6,-0.5 3,-1.6 3,-3.3c0,-2.3 -1.9,-2.9 -3.8,-2.9c-1.1,-0 -2.1,-0 -2.6,0.1l0,6.2l1.3,0Zm5.6,4.8c0,-2.8 -2.5,-3.3 -4.7,-3.3l-2.2,0l0,6.4c0.5,0.1 1.9,0.2 2.7,0.2c2.2,0 4.2,-1.1 4.2,-3.3m10.3,-12.7l-6.5,17.3l1.7,0l1.8,-4.9l6.4,0l1.8,4.9l1.8,0l-6.5,-17.3l-0.5,0Zm-0.4,5.4l0.6,-2.6l0.6,2.6l2,5.5l-5.3,0l2.1,-5.5Zm19.9,-5.1l1.8,0l-0,11.4c-0,4.1 -2.2,5.8 -5.5,5.8c-3.9,0 -6,-1.8 -6,-5.4l-0,-11.8l1.7,0l-0,10.8c-0,3.7 1.4,4.9 4.2,4.9c2.7,0 3.8,-1.4 3.8,-4.9l-0,-10.8Zm23.9,0l-4.7,17.3l-0.8,0l-3.5,-11.9l-0.5,-2.6l-0.2,0l-0.5,2.6l-3.5,11.8l-0.8,0l-4.8,-17.3l1.8,0l3.2,11.8l0.4,2.8l0.4,-2.8l3.6,-11.8l0.7,0l3.6,11.8l0.4,2.8l0.4,-2.8l3,-11.8l1.8,0l0,0.1Zm3.2,0l1.7,0l0,17l-1.7,0l0,-17Zm6.9,0.1c1.2,-0.2 2.9,-0.4 4.2,-0.4c2.9,0 5.4,1.3 5.4,4.7c0,2.7 -1.7,4.3 -3.9,4.8l1.1,0.9l4.3,6.8l-2,0l-4.9,-7.5l-2.5,-0.4l0,7.9l-1.7,0l-0,-16.8Zm1.7,1.3l0,6.6l2,0c2.3,0 4,-1.1 4,-3.6c0,-1.8 -1.3,-3.2 -3.5,-3.2c-0.9,0.1 -2.1,0.1 -2.5,0.2m22,-1.4l0,1.6l-5.3,0l0,15.5l-1.7,0l-0,-15.5l-5.3,0l0,-1.6l12.3,0Zm2.5,3.9c0,-2.5 1.8,-4.2 5.2,-4.2c2,0 3.6,0.3 4.5,0.8l-0.5,1.5c-0.7,-0.4 -2.3,-0.7 -4.1,-0.7c-2.3,0 -3.3,1.3 -3.3,2.6c-0,4 8.2,3.4 8.2,8.8c-0,2.7 -2.1,4.7 -5.6,4.7c-2.4,0 -3.9,-0.4 -4.8,-0.9l0.6,-1.6c0.7,0.4 2.3,0.9 4.1,0.9c2.1,0 4,-0.9 4,-3.1c-0.1,-4.3 -8.3,-3.2 -8.3,-8.8m24.3,12.4c-1,0.8 -2.5,1 -4.2,1c-4,-0 -7.3,-2.8 -7.3,-8.8c-0,-6.3 3.7,-8.8 7.3,-8.8c1.9,-0 3,0.2 3.9,0.6l-0.5,1.5c-0.7,-0.4 -1.9,-0.6 -3.3,-0.6c-2.7,-0 -5.5,1.8 -5.5,7.3c-0,4.9 2.7,7.3 5.9,7.3c1.4,-0 2.5,-0.3 3.3,-0.8l0.4,1.3Zm15.5,-16.3l-0,17.1l-1.7,0l-0,-8l-8.5,0l-0,8l-1.7,0l-0,-17.1l1.7,0l-0,7.5l8.5,0l-0,-7.5l1.7,0Zm9.2,-0.3l-6.5,17.3l1.7,0l1.8,-4.9l6.4,0l1.8,4.9l1.8,0l-6.5,-17.3l-0.5,0Zm-0.4,5.4l0.6,-2.6l0.6,2.6l2.1,5.5l-5.3,-0l2,-5.5Zm19.2,-5.2l-0,1.6l-7.3,0l-0,6.2l6.8,0l-0,1.5l-6.8,0l-0,7.8l-1.7,0l-0,-17.1l9,-0Zm14.5,0.1l-0,1.6l-5.3,0l-0,15.5l-1.7,0l-0,-15.5l-5.3,0l-0,-1.6l12.3,0Z" style="fill-rule:nonzero;"/><path d="M282,11.1c66.7,0 127.8,23.8 175.4,63.3l-31.2,0c-46.7,-36.8 -105.7,-58.8 -169.8,-58.8c-12,-0 -23.8,0.8 -35.4,2.3c19.7,-4.4 40.1,-6.8 61,-6.8m-0.3,-6c19.3,0 38.2,1.8 56.5,5.2c-25.3,-6.7 -51.9,-10.3 -79.3,-10.3c-108.7,0 -204.2,56.3 -258.9,141.4l26.2,0c55.3,-82.2 149.1,-136.3 255.5,-136.3" style="fill:#c3162c;fill-rule:nonzero;"/></svg>