<?xml version="1.0" encoding="utf-8"?>
<!-- Generator: Adobe Illustrator 22.1.0, SVG Export Plug-In . SVG Version: 6.00 Build 0)  -->
<svg version="1.1" id="Ebene_1" xmlns="http://www.w3.org/2000/svg" xmlns:xlink="http://www.w3.org/1999/xlink" x="0px" y="0px"
	 width="191.6px" height="90.3px" viewBox="0 0 191.6 90.3" style="enable-background:new 0 0 191.6 90.3;" xml:space="preserve">
<style type="text/css">
	.st0{fill:#009EE2;}
	.st1{clip-path:url(#SVGID_2_);fill:#1D1D1B;}
	.st2{clip-path:url(#SVGID_2_);fill:none;stroke:#009EE2;stroke-width:2.195;stroke-miterlimit:10;}
	.st3{fill:#1D1D1B;}
	.st4{fill:#FFFFFF;}
</style>
<rect x="70.7" y="31.6" class="st0" width="120.1" height="38"/>
<g>
	<path class="st0" d="M45.8,89.5c24.5,0,44.4-19.9,44.4-44.4S70.4,0.7,45.8,0.7S1.4,20.6,1.4,45.1S21.3,89.5,45.8,89.5"/>
</g>
<g>
	<defs>
		<path id="SVGID_1_" d="M1.4,45.1c0,24.5,19.9,44.4,44.4,44.4s44.4-19.9,44.4-44.4S70.4,0.7,45.8,0.7S1.4,20.6,1.4,45.1"/>
	</defs>
	<clipPath id="SVGID_2_">
		<use xlink:href="#SVGID_1_"  style="overflow:visible;"/>
	</clipPath>
	<path class="st1" d="M58.2,25.1c-1.1-2.9-4.6-2.3-4.6-2.3l-0.2,1c-2.8-4.6-6.6-9-8-9H24.6c-1.4,0-4.9,4.3-7.5,8.8l-0.2-0.8
		c0,0-3.5-0.6-4.6,2.3c0,0-0.1,1.2,3.3,1.3c-1.2,2.3-2,4.5-2,6v4.9c0,1.1,0.1,3.5,0.1,3.7v7.6c0,0.8,0.7,1.5,1.5,1.5H18
		c0.8,0,1.5-0.7,1.5-1.5v-2.7H51v2.7c0,0.8,0.7,1.5,1.5,1.5h2.8c0.8,0,1.5-0.7,1.5-1.5v-7.6c0-0.2-0.1-0.5-0.2-0.7
		c0.2-0.9,0.3-2,0.3-3v-5c0-1.4-0.8-3.6-2-5.8C58.3,26.4,58.2,25.1,58.2,25.1"/>
	<path class="st1" d="M81.8,34.5c-1.2-3.2-4.6-3.5-6.2-3.2c-0.1,0-0.1,0-0.2,0c-1.9-2.9-6.2-8.7-8.6-8.7H44.2
		c-2.5,0-6.5,5.9-8.3,8.7c-1.6-0.3-4.9,0.1-6.1,3.2l-0.1,0.1l0,0.2c0,0.2,0,0.7,0.5,1.3c0.5,0.6,1.3,0.9,2.4,1.1
		c-1,2.3-1.6,4.2-1.6,5.5v5.3c0,0.8,0.1,2.3,0.1,3.3c0,0.4,0,0.7,0,0.7v8.3c0,1.5,1.2,2.7,2.7,2.7h3.1c1.5,0,2.7-1.2,2.7-2.7v-1.9
		h32.1v1.9c0,1.5,1.2,2.7,2.7,2.7h3.1c1.5,0,2.7-1.2,2.7-2.7v-8.3c0-0.3-0.1-0.6-0.1-0.8c0.2-1,0.3-2.1,0.3-3.2v-5.4
		c0-1.3-0.5-3.1-1.6-5.4c1.2-0.2,2-0.5,2.5-1.1c0.5-0.6,0.5-1.2,0.5-1.3l0-0.2L81.8,34.5z"/>
	<path class="st2" d="M81.8,34.5c-1.2-3.2-4.6-3.5-6.2-3.2c-0.1,0-0.1,0-0.2,0c-1.9-2.9-6.2-8.7-8.6-8.7H44.2
		c-2.5,0-6.5,5.9-8.3,8.7c-1.6-0.3-4.9,0.1-6.1,3.2l-0.1,0.1l0,0.2c0,0.2,0,0.7,0.5,1.3c0.5,0.6,1.3,0.9,2.4,1.1
		c-1,2.3-1.6,4.2-1.6,5.5v5.3c0,0.8,0.1,2.3,0.1,3.3c0,0.4,0,0.7,0,0.7v8.3c0,1.5,1.2,2.7,2.7,2.7h3.1c1.5,0,2.7-1.2,2.7-2.7v-1.9
		h32.1v1.9c0,1.5,1.2,2.7,2.7,2.7h3.1c1.5,0,2.7-1.2,2.7-2.7v-8.3c0-0.3-0.1-0.6-0.1-0.8c0.2-1,0.3-2.1,0.3-3.2v-5.4
		c0-1.3-0.5-3.1-1.6-5.4c1.2-0.2,2-0.5,2.5-1.1c0.5-0.6,0.5-1.2,0.5-1.3l0-0.2L81.8,34.5z"/>
	<path class="st1" d="M105.7,44.6c-1.2-3.2-4.6-3.5-6.2-3.2c-0.1,0-0.1,0-0.2,0c-1.9-2.9-6.2-8.7-8.6-8.7H68.1
		c-2.5,0-6.5,5.9-8.3,8.7c-1.6-0.3-4.9,0.1-6.1,3.2l-0.1,0.1l0,0.2c0,0.2,0,0.7,0.5,1.3c0.5,0.6,1.3,0.9,2.4,1.1
		c-1,2.3-1.6,4.2-1.6,5.5v5.3c0,0.8,0.1,2.3,0.1,3.3c0,0.4,0,0.7,0,0.7v8.3c0,1.5,1.2,2.7,2.7,2.7H61c1.5,0,2.7-1.2,2.7-2.7v-1.9
		h32.1v1.9c0,1.5,1.2,2.7,2.7,2.7h3.1c1.5,0,2.7-1.2,2.7-2.7v-8.3c0-0.3-0.1-0.6-0.1-0.8c0.2-1,0.3-2.1,0.3-3.2v-5.4
		c0-1.3-0.5-3.1-1.6-5.4c1.2-0.2,2-0.5,2.5-1.1c0.5-0.6,0.5-1.2,0.5-1.3l0-0.2L105.7,44.6z"/>
	<path class="st2" d="M105.7,44.6c-1.2-3.2-4.6-3.5-6.2-3.2c-0.1,0-0.1,0-0.2,0c-1.9-2.9-6.2-8.7-8.6-8.7H68.1
		c-2.5,0-6.5,5.9-8.3,8.7c-1.6-0.3-4.9,0.1-6.1,3.2l-0.1,0.1l0,0.2c0,0.2,0,0.7,0.5,1.3c0.5,0.6,1.3,0.9,2.4,1.1
		c-1,2.3-1.6,4.2-1.6,5.5v5.3c0,0.8,0.1,2.3,0.1,3.3c0,0.4,0,0.7,0,0.7v8.3c0,1.5,1.2,2.7,2.7,2.7H61c1.5,0,2.7-1.2,2.7-2.7v-1.9
		h32.1v1.9c0,1.5,1.2,2.7,2.7,2.7h3.1c1.5,0,2.7-1.2,2.7-2.7v-8.3c0-0.3-0.1-0.6-0.1-0.8c0.2-1,0.3-2.1,0.3-3.2v-5.4
		c0-1.3-0.5-3.1-1.6-5.4c1.2-0.2,2-0.5,2.5-1.1c0.5-0.6,0.5-1.2,0.5-1.3l0-0.2L105.7,44.6z"/>
</g>
<rect x="70.7" y="33.8" class="st3" width="118.2" height="33.6"/>
<g>
	<path class="st4" d="M79.8,58.7c1.4,0,2,0.9,2,2.6c0,2.3-0.7,3-2,3c-1.2,0-2-0.6-2-2.7C77.8,59.5,78.4,58.7,79.8,58.7z M79.8,59.3
		c-1,0-1.2,0.4-1.2,2.1c0,1.8,0.3,2.2,1.2,2.2c0.9,0,1.2-0.3,1.2-2.2C81,59.6,80.7,59.3,79.8,59.3z"/>
	<path class="st4" d="M86.5,63.9c0,0.2-0.2,0.3-0.4,0.3c-0.2,0-0.4,0-0.4-0.3v-2.6c0-0.7-0.3-0.9-0.9-0.9c-0.3,0-0.5,0-0.6,0.1
		C84,60.6,84,60.7,84,60.8v3.1c0,0.2-0.2,0.3-0.4,0.3c-0.2,0-0.4,0-0.4-0.3v-3.5c0-0.3,0.1-0.4,0.4-0.5c0.4-0.1,0.9-0.1,1.2-0.1
		c1.4,0,1.7,0.4,1.7,1.3V63.9z"/>
	<path class="st4" d="M89,62.3c-0.2,0-0.3,0.1-0.3,0.3c0,0.7,0.4,1.1,1.4,1.1c0.3,0,0.6,0,0.8-0.1c0.2,0,0.3,0,0.3,0.2
		c0,0.1,0,0.2-0.1,0.3c-0.2,0.1-0.6,0.2-1,0.2c-1.4,0-2-0.5-2-1.9v-0.6c0-1.5,0.8-1.9,1.7-1.9c1.3,0,1.6,0.7,1.6,1.6
		c0,0.7-0.1,0.8-0.9,0.8L89,62.3z M88.7,61.5c0,0.3,0.1,0.3,0.5,0.3H90c0.4,0,0.5,0,0.5-0.4c0-0.7-0.2-1-0.9-1c-0.7,0-1,0.4-1,0.9
		V61.5z"/>
	<path class="st4" d="M92.7,62.1c-0.2,0-0.2-0.1-0.2-0.3c0-0.2,0-0.3,0.2-0.3h1.6c0.2,0,0.2,0.2,0.2,0.3c0,0.2,0,0.3-0.2,0.3H92.7z"
		/>
	<path class="st4" d="M97.5,58.7c0.6,0,0.9,0,1.1,0.1c0.1,0.1,0.2,0.2,0.2,0.3c0,0.2-0.1,0.3-0.3,0.3c-0.2,0-0.4,0-0.8,0
		c-0.7,0-1,0.1-1,0.6c0,0.4,0.3,0.8,1,1.2c0.8,0.6,1.1,1,1.1,1.6c0,1-0.7,1.5-1.8,1.5c-0.3,0-0.9,0-1.1-0.2c-0.1,0-0.1-0.1-0.1-0.2
		c0-0.1,0.1-0.3,0.3-0.3c0.3,0.1,0.7,0.1,0.9,0.1c0.5,0,1-0.2,1-0.8c0-0.4-0.2-0.7-1.1-1.3c-0.8-0.6-1.1-1.1-1.1-1.6
		C95.8,59,96.6,58.7,97.5,58.7z"/>
	<path class="st4" d="M101.2,63.1c0,0.4,0.1,0.6,0.5,0.6h0.2c0.2,0,0.2,0.1,0.2,0.2c0,0.1,0,0.2-0.1,0.2c-0.1,0-0.3,0.1-0.5,0.1
		c-0.8,0-0.9-0.4-0.9-1.1v-2.4c0-0.2,0-0.2-0.2-0.2h-0.4c-0.2,0-0.2-0.1-0.2-0.3c0-0.2,0-0.3,0.2-0.3h0.4c0.2,0,0.2,0,0.2-0.2V59
		c0-0.3,0.2-0.3,0.4-0.3c0.2,0,0.4,0,0.4,0.3v0.8c0,0.2,0,0.2,0.2,0.2h0.5c0.2,0,0.2,0.1,0.2,0.3c0,0.2,0,0.3-0.2,0.3h-0.5
		c-0.2,0-0.2,0-0.2,0.2V63.1z"/>
	<path class="st4" d="M104.9,59.8c1.2,0,1.8,0.7,1.8,2.1c0,1.8-0.7,2.3-1.8,2.3c-1.1,0-1.8-0.5-1.8-2.1
		C103.1,60.5,103.7,59.8,104.9,59.8z M104.9,60.4c-0.8,0-1,0.3-1,1.6c0,1.4,0.3,1.6,1,1.6c0.8,0,1-0.2,1-1.6
		C105.9,60.7,105.7,60.4,104.9,60.4z"/>
	<path class="st4" d="M108.1,60.3c0-0.4,0.5-0.4,1.6-0.4c1.2,0,1.8,0.5,1.8,2.1c0,1.5-0.3,2.3-2.2,2.3c-0.3,0-0.4,0.1-0.4,0.3v0.9
		c0,0.3-0.2,0.3-0.4,0.3c-0.2,0-0.4,0-0.4-0.3V60.3z M108.9,62.9c0,0.5,0.2,0.7,0.6,0.7c1,0,1.2-0.3,1.2-1.6c0-1.3-0.2-1.6-1-1.6
		s-0.8,0.1-0.8,0.5V62.9z"/>
	<path class="st4" d="M113,62.1c-0.2,0-0.2-0.1-0.2-0.3c0-0.2,0-0.3,0.2-0.3h1.6c0.2,0,0.2,0.2,0.2,0.3c0,0.2,0,0.3-0.2,0.3H113z"/>
	<path class="st4" d="M117.1,63.9c0,0.3-0.2,0.3-0.4,0.3c-0.2,0-0.4,0-0.4-0.3v-4.5c0-0.4,0.2-0.6,0.7-0.6h1.8
		c0.2,0,0.2,0.2,0.2,0.3c0,0.2,0,0.3-0.2,0.3h-1.5c-0.2,0-0.2,0.1-0.2,0.3v1.1c0,0.2,0,0.2,0.2,0.2h1.4c0.2,0,0.2,0.1,0.2,0.3
		c0,0.2,0,0.3-0.2,0.3h-1.4c-0.2,0-0.2,0-0.2,0.2V63.9z"/>
	<path class="st4" d="M120.3,58.6c0-0.2,0.2-0.3,0.4-0.3c0.2,0,0.4,0,0.4,0.3v4.5c0,0.4,0.1,0.6,0.4,0.6h0.2c0.2,0,0.2,0.1,0.2,0.2
		c0,0.1,0,0.2-0.1,0.2c-0.1,0-0.3,0.1-0.5,0.1c-0.8,0-0.9-0.4-0.9-1.1V58.6z"/>
	<path class="st4" d="M123.9,62.3c-0.2,0-0.3,0.1-0.3,0.3c0,0.7,0.4,1.1,1.4,1.1c0.3,0,0.6,0,0.8-0.1c0.2,0,0.3,0,0.3,0.2
		c0,0.1,0,0.2-0.1,0.3c-0.2,0.1-0.6,0.2-1,0.2c-1.4,0-2-0.5-2-1.9v-0.6c0-1.5,0.8-1.9,1.7-1.9c1.3,0,1.6,0.7,1.6,1.6
		c0,0.7-0.1,0.8-0.9,0.8L123.9,62.3z M123.6,61.5c0,0.3,0.1,0.3,0.5,0.3h0.9c0.4,0,0.5,0,0.5-0.4c0-0.7-0.2-1-0.9-1
		c-0.7,0-1,0.4-1,0.9V61.5z"/>
	<path class="st4" d="M128.6,62.3c-0.2,0-0.3,0.1-0.3,0.3c0,0.7,0.4,1.1,1.4,1.1c0.3,0,0.6,0,0.8-0.1c0.2,0,0.3,0,0.3,0.2
		c0,0.1,0,0.2-0.1,0.3c-0.2,0.1-0.6,0.2-1,0.2c-1.4,0-2-0.5-2-1.9v-0.6c0-1.5,0.8-1.9,1.7-1.9c1.3,0,1.6,0.7,1.6,1.6
		c0,0.7-0.1,0.8-0.9,0.8L128.6,62.3z M128.3,61.5c0,0.3,0.1,0.3,0.5,0.3h0.9c0.4,0,0.5,0,0.5-0.4c0-0.7-0.2-1-0.9-1
		c-0.7,0-1,0.4-1,0.9V61.5z"/>
	<path class="st4" d="M133.4,63.1c0,0.4,0.1,0.6,0.5,0.6h0.2c0.2,0,0.2,0.1,0.2,0.2c0,0.1,0,0.2-0.1,0.2c-0.1,0-0.3,0.1-0.5,0.1
		c-0.8,0-0.9-0.4-0.9-1.1v-2.4c0-0.2,0-0.2-0.2-0.2H132c-0.2,0-0.2-0.1-0.2-0.3c0-0.2,0-0.3,0.2-0.3h0.4c0.2,0,0.2,0,0.2-0.2V59
		c0-0.3,0.2-0.3,0.4-0.3c0.2,0,0.4,0,0.4,0.3v0.8c0,0.2,0,0.2,0.2,0.2h0.5c0.2,0,0.2,0.1,0.2,0.3c0,0.2,0,0.3-0.2,0.3h-0.5
		c-0.2,0-0.2,0-0.2,0.2V63.1z"/>
	<path class="st4" d="M141.2,63.9c0,0.2-0.2,0.3-0.4,0.3c-0.2,0-0.4,0-0.4-0.3v-2.6c0-0.6-0.2-0.9-0.9-0.9c-0.2,0-0.5,0-0.6,0.1
		c-0.2,0.1-0.2,0.1-0.2,0.3v3.1c0,0.2-0.2,0.3-0.4,0.3c-0.2,0-0.4,0-0.4-0.3v-2.9c0-0.5-0.3-0.6-0.8-0.6c-0.3,0-0.5,0-0.7,0.1
		c-0.1,0-0.2,0.2-0.2,0.3v3.1c0,0.2-0.2,0.3-0.4,0.3c-0.2,0-0.4,0-0.4-0.3v-3.4c0-0.3,0.1-0.5,0.3-0.5c0.4-0.1,1-0.1,1.3-0.1
		c0.4,0,0.8,0,1.1,0.2c0,0,0.1,0,0.1,0s0.1,0,0.1,0c0.3-0.1,0.8-0.2,1.1-0.2c1.2,0,1.6,0.3,1.6,1.3V63.9z"/>
	<path class="st4" d="M145.7,63.8c0,0.4-0.6,0.5-1.6,0.5c-1.2,0-1.6-0.3-1.6-1.1c0-0.9,0.2-1.2,1.4-1.3l0.7-0.1
		c0.3,0,0.3-0.1,0.3-0.5c0-0.5-0.1-0.8-0.9-0.8c-0.3,0-0.6,0-0.9,0.1c-0.1,0-0.3,0-0.3-0.3c0-0.1,0-0.2,0.1-0.2
		c0.2-0.1,0.7-0.2,1.1-0.2c1.2,0,1.6,0.4,1.6,1.4V63.8z M145,62.6c0-0.3-0.1-0.4-0.5-0.4h-0.4c-0.5,0-0.7,0.2-0.7,0.8
		c0,0.6,0.1,0.7,0.7,0.7c0.7,0,0.9,0,0.9-0.6V62.6z"/>
	<path class="st4" d="M150.7,63.9c0,0.2-0.2,0.3-0.4,0.3c-0.2,0-0.4,0-0.4-0.3v-2.6c0-0.7-0.3-0.9-0.9-0.9c-0.3,0-0.5,0-0.6,0.1
		c-0.2,0.1-0.2,0.2-0.2,0.3v3.1c0,0.2-0.2,0.3-0.4,0.3c-0.2,0-0.4,0-0.4-0.3v-3.5c0-0.3,0.1-0.4,0.4-0.5c0.4-0.1,0.9-0.1,1.2-0.1
		c1.4,0,1.7,0.4,1.7,1.3V63.9z"/>
	<path class="st4" d="M155.2,63.8c0,0.4-0.6,0.5-1.6,0.5c-1.2,0-1.6-0.3-1.6-1.1c0-0.9,0.2-1.2,1.4-1.3l0.7-0.1
		c0.3,0,0.3-0.1,0.3-0.5c0-0.5-0.1-0.8-0.9-0.8c-0.3,0-0.6,0-0.9,0.1c-0.1,0-0.3,0-0.3-0.3c0-0.1,0-0.2,0.1-0.2
		c0.2-0.1,0.7-0.2,1.1-0.2c1.2,0,1.6,0.4,1.6,1.4V63.8z M154.5,62.6c0-0.3-0.1-0.4-0.5-0.4h-0.4c-0.5,0-0.7,0.2-0.7,0.8
		c0,0.6,0.1,0.7,0.7,0.7c0.7,0,0.9,0,0.9-0.6V62.6z"/>
	<path class="st4" d="M160.1,64.2c0,1.3-1.2,1.4-2.1,1.4c-0.7,0-1.2-0.1-1.2-0.4c0-0.1,0.1-0.3,0.2-0.3c0.3,0,0.6,0.1,0.9,0.1
		c0.8,0,1.4-0.1,1.4-0.6v-0.3c0-0.2,0-0.2-0.5-0.2c-1.6,0-2.1-0.3-2.1-1.9c0-1.7,0.6-2.2,2-2.2c1,0,1.4,0,1.4,0.4V64.2z M159.3,60.9
		c0-0.4-0.1-0.5-0.8-0.5c-0.7,0-1,0.2-1,1.6c0,1.3,0.1,1.4,1.3,1.4c0.5,0,0.6,0,0.6-0.5V60.9z"/>
	<path class="st4" d="M162.7,62.3c-0.2,0-0.3,0.1-0.3,0.3c0,0.7,0.4,1.1,1.4,1.1c0.3,0,0.6,0,0.8-0.1c0.2,0,0.3,0,0.3,0.2
		c0,0.1,0,0.2-0.1,0.3c-0.2,0.1-0.6,0.2-1,0.2c-1.4,0-2-0.5-2-1.9v-0.6c0-1.5,0.8-1.9,1.7-1.9c1.3,0,1.6,0.7,1.6,1.6
		c0,0.7-0.1,0.8-0.9,0.8L162.7,62.3z M162.4,61.5c0,0.3,0.1,0.3,0.5,0.3h0.9c0.4,0,0.5,0,0.5-0.4c0-0.7-0.2-1-0.9-1
		c-0.7,0-1,0.4-1,0.9V61.5z"/>
	<path class="st4" d="M172.1,63.9c0,0.2-0.2,0.3-0.4,0.3c-0.2,0-0.4,0-0.4-0.3v-2.6c0-0.6-0.2-0.9-0.9-0.9c-0.2,0-0.5,0-0.6,0.1
		c-0.2,0.1-0.2,0.1-0.2,0.3v3.1c0,0.2-0.2,0.3-0.4,0.3c-0.2,0-0.4,0-0.4-0.3v-2.9c0-0.5-0.3-0.6-0.8-0.6c-0.3,0-0.5,0-0.7,0.1
		c-0.1,0-0.2,0.2-0.2,0.3v3.1c0,0.2-0.2,0.3-0.4,0.3c-0.2,0-0.4,0-0.4-0.3v-3.4c0-0.3,0.1-0.5,0.3-0.5c0.4-0.1,1-0.1,1.3-0.1
		c0.4,0,0.8,0,1.1,0.2c0,0,0.1,0,0.1,0s0.1,0,0.1,0c0.3-0.1,0.8-0.2,1.1-0.2c1.2,0,1.6,0.3,1.6,1.3V63.9z"/>
	<path class="st4" d="M174.6,62.3c-0.2,0-0.3,0.1-0.3,0.3c0,0.7,0.4,1.1,1.4,1.1c0.3,0,0.6,0,0.8-0.1c0.2,0,0.3,0,0.3,0.2
		c0,0.1,0,0.2-0.1,0.3c-0.2,0.1-0.6,0.2-1,0.2c-1.4,0-2-0.5-2-1.9v-0.6c0-1.5,0.8-1.9,1.7-1.9c1.3,0,1.6,0.7,1.6,1.6
		c0,0.7-0.1,0.8-0.9,0.8L174.6,62.3z M174.3,61.5c0,0.3,0.1,0.3,0.5,0.3h0.9c0.4,0,0.5,0,0.5-0.4c0-0.7-0.2-1-0.9-1
		c-0.7,0-1,0.4-1,0.9V61.5z"/>
	<path class="st4" d="M181.6,63.9c0,0.2-0.2,0.3-0.4,0.3c-0.2,0-0.4,0-0.4-0.3v-2.6c0-0.7-0.3-0.9-0.9-0.9c-0.3,0-0.5,0-0.6,0.1
		c-0.2,0.1-0.2,0.2-0.2,0.3v3.1c0,0.2-0.2,0.3-0.4,0.3c-0.2,0-0.4,0-0.4-0.3v-3.5c0-0.3,0.1-0.4,0.4-0.5c0.4-0.1,0.9-0.1,1.2-0.1
		c1.4,0,1.7,0.4,1.7,1.3V63.9z"/>
	<path class="st4" d="M184.2,63.1c0,0.4,0.1,0.6,0.5,0.6h0.2c0.2,0,0.2,0.1,0.2,0.2c0,0.1,0,0.2-0.1,0.2c-0.1,0-0.3,0.1-0.5,0.1
		c-0.8,0-0.9-0.4-0.9-1.1v-2.4c0-0.2,0-0.2-0.2-0.2h-0.4c-0.2,0-0.2-0.1-0.2-0.3c0-0.2,0-0.3,0.2-0.3h0.4c0.2,0,0.2,0,0.2-0.2V59
		c0-0.3,0.2-0.3,0.4-0.3c0.2,0,0.4,0,0.4,0.3v0.8c0,0.2,0,0.2,0.2,0.2h0.5c0.2,0,0.2,0.1,0.2,0.3c0,0.2,0,0.3-0.2,0.3h-0.5
		c-0.2,0-0.2,0-0.2,0.2V63.1z"/>
</g>
<g>
	<path class="st4" d="M80.8,54c0,0.8-0.7,1-1.3,1c-0.7,0-1.3-0.2-1.3-1V39.3c0-1.2,0.7-2,2.3-2h5.9c0.6,0,0.7,0.5,0.7,1
		c0,0.6-0.2,1.1-0.7,1.1h-5c-0.6,0-0.7,0.2-0.7,1.1v3.6c0,0.5,0.1,0.7,0.7,0.7h4.6c0.6,0,0.7,0.4,0.7,1c0,0.6-0.2,1-0.7,1h-4.6
		c-0.6,0-0.7,0.1-0.7,0.7V54z"/>
	<path class="st4" d="M90.2,36.8c0-0.8,0.6-0.9,1.2-0.9c0.6,0,1.3,0.1,1.3,0.9v14.5c0,1.4,0.3,1.9,1.4,1.9h0.5
		c0.5,0,0.6,0.3,0.6,0.7c0,0.4-0.1,0.7-0.4,0.8c-0.3,0.1-1,0.3-1.7,0.3c-2.5,0-3-1.3-3-3.6V36.8z"/>
	<path class="st4" d="M100.4,48.8c-0.8,0-1,0.3-1,1c0,2.4,1.2,3.5,4.4,3.5c1.1,0,2-0.1,2.6-0.3c0.5-0.1,1,0.1,1,0.7
		c0,0.4-0.1,0.7-0.4,0.9c-0.7,0.4-1.8,0.6-3.4,0.6c-4.6,0-6.6-1.7-6.6-6.3v-1.9c0-4.7,2.6-6.1,5.7-6.1c4.1,0,5.2,2.2,5.2,5.2
		c0,2.2-0.4,2.5-3,2.6L100.4,48.8z M99.5,46.1c0,0.8,0.4,1,1.6,1h2.8c1.2,0,1.6-0.1,1.6-1.2c0-2.2-0.7-3.1-2.8-3.1
		c-2.3,0-3.2,1.1-3.2,3V46.1z"/>
	<path class="st4" d="M114.4,48.8c-0.8,0-1,0.3-1,1c0,2.4,1.2,3.5,4.4,3.5c1.1,0,2-0.1,2.6-0.3c0.5-0.1,1,0.1,1,0.7
		c0,0.4-0.1,0.7-0.4,0.9c-0.7,0.4-1.8,0.6-3.4,0.6c-4.6,0-6.6-1.7-6.6-6.3v-1.9c0-4.7,2.6-6.1,5.7-6.1c4.1,0,5.2,2.2,5.2,5.2
		c0,2.2-0.4,2.5-3,2.6L114.4,48.8z M113.4,46.1c0,0.8,0.4,1,1.6,1h2.8c1.2,0,1.6-0.1,1.6-1.2c0-2.2-0.7-3.1-2.8-3.1
		c-2.3,0-3.2,1.1-3.2,3V46.1z"/>
	<path class="st4" d="M128.7,51.3c0,1.4,0.4,1.9,1.5,1.9h0.5c0.5,0,0.6,0.3,0.6,0.7c0,0.4-0.1,0.7-0.4,0.8c-0.3,0.1-1,0.3-1.7,0.3
		c-2.5,0-3-1.3-3-3.6v-7.8c0-0.5-0.1-0.7-0.7-0.7h-1.2c-0.6,0-0.7-0.4-0.7-1c0-0.5,0.2-0.9,0.7-0.9h1.2c0.6,0,0.7-0.1,0.7-0.6V38
		c0-0.8,0.6-1,1.2-1c0.6,0,1.2,0.1,1.2,0.9v2.5c0,0.5,0.1,0.6,0.7,0.6h1.6c0.6,0,0.7,0.4,0.7,0.9c0,0.6-0.1,1-0.7,1h-1.6
		c-0.5,0-0.7,0.1-0.7,0.7V51.3z"/>
	<path class="st4" d="M133.9,48.1c-0.6,0-0.7-0.4-0.7-1c0-0.5,0.2-1,0.7-1h5.3c0.6,0,0.7,0.5,0.7,1c0,0.6-0.1,1-0.7,1H133.9z"/>
	<path class="st4" d="M152.8,38.2c0-0.8,0.7-1,1.3-1c0.7,0,1.3,0.2,1.3,1V54c0,0.8-0.7,1-1.3,1c-0.7,0-1.3-0.2-1.3-1v-6.5
		c0-0.5-0.1-0.7-0.7-0.7h-5.4c-0.6,0-0.7,0.1-0.7,0.7V54c0,0.8-0.7,1-1.3,1c-0.7,0-1.3-0.2-1.3-1V38.2c0-0.8,0.7-1,1.3-1
		c0.7,0,1.3,0.2,1.3,1v6c0,0.5,0.1,0.7,0.7,0.7h5.4c0.6,0,0.7-0.1,0.7-0.7V38.2z"/>
	<path class="st4" d="M161.9,50.3c0,2.2,0.9,3,3,3c1.9,0,2.6-0.2,2.6-1.2V41.9c0-0.8,0.6-0.9,1.2-0.9c0.6,0,1.3,0.2,1.3,0.9v11.2
		c0,1.1-0.3,1.4-1.1,1.6c-1.3,0.3-2.6,0.5-3.8,0.5c-4.7,0-5.7-1.4-5.7-4.3v-8.9c0-0.8,0.6-0.9,1.2-0.9c0.6,0,1.3,0.2,1.3,0.9V50.3z"
		/>
	<path class="st4" d="M174.2,36.8c0-0.8,0.6-0.9,1.2-0.9c0.6,0,1.2,0.1,1.2,0.9v3.3c0,0.7,0.2,0.9,1.7,0.9c5.3,0,6.8,1.8,6.8,7
		c0,5.4-1.8,7.1-6.3,7.1c-1.3,0-2.6-0.1-3.5-0.3c-0.8-0.2-1.2-0.5-1.2-1.2V36.8z M176.6,51.5c0,1.4,0.3,1.7,2.7,1.7
		c2.4,0,3.2-1,3.2-5.3c0-4.1-0.4-5.2-4.1-5.2c-1.6,0-1.8,0.6-1.8,2.3V51.5z"/>
</g>
</svg>
